<svg xmlns="http://www.w3.org/2000/svg" xmlns:xlink="http://www.w3.org/1999/xlink" width="1024" zoomAndPan="magnify" viewBox="0 0 768 767.999994" height="1024" preserveAspectRatio="xMidYMid meet" version="1.0"><defs><g/><clipPath id="991b365651"><path d="M 188.886719 460.9375 L 223 460.9375 L 223 586.597656 L 188.886719 586.597656 Z M 188.886719 460.9375 " clip-rule="nonzero"/></clipPath><clipPath id="97b9ceb062"><path d="M 24.976562 25 L 742.726562 25 L 742.726562 742.726562 L 24.976562 742.726562 Z M 24.976562 25 " clip-rule="nonzero"/></clipPath><clipPath id="7a72ae6fbc"><path d="M 47.429688 47.429688 L 720.929688 47.429688 L 720.929688 720.929688 L 47.429688 720.929688 Z M 47.429688 47.429688 " clip-rule="nonzero"/></clipPath><clipPath id="abc42f2269"><path d="M 56.136719 56.136719 L 711.636719 56.136719 L 711.636719 711.636719 L 56.136719 711.636719 Z M 56.136719 56.136719 " clip-rule="nonzero"/></clipPath><clipPath id="63ac571a13"><path d="M 535 461.070312 L 568.652344 461.070312 L 568.652344 586.726562 L 535 586.726562 Z M 535 461.070312 " clip-rule="nonzero"/></clipPath></defs><path stroke-linecap="butt" transform="matrix(2.357652, 0, 0, 2.357652, 271.372607, 466.124517)" fill="none" stroke-linejoin="miter" d="M 11.115093 6.034414 L 11.115093 43.000155 L 2.691722 43.000155 L 2.691722 6.034414 Z M 44.942781 35.385322 C 46.226831 35.385322 47.474431 35.193128 48.685581 34.805428 C 49.895073 34.412757 50.784796 34.036654 51.354749 33.678777 L 52.196423 33.098883 L 55.785137 40.264713 C 55.667501 40.352526 55.503474 40.473475 55.293056 40.625904 C 55.08098 40.771706 54.595526 41.048398 53.838351 41.457638 C 53.079518 41.858593 52.26601 42.208186 51.397827 42.508074 C 50.529643 42.806305 49.393051 43.073056 47.984738 43.30667 C 46.584708 43.546912 45.136631 43.667861 43.642162 43.667861 C 40.205877 43.667861 36.950188 42.82453 33.871781 41.139525 C 30.79503 39.456176 28.314742 37.136601 26.432572 34.182456 C 24.55206 31.221685 23.610975 28.023985 23.610975 24.5877 C 23.610975 21.984805 24.161045 19.489605 25.262844 17.105414 C 26.371269 14.712938 27.844199 12.666741 29.681634 10.968481 C 31.520726 9.261937 33.664676 7.901671 36.115141 6.887686 C 38.565606 5.865416 41.074061 5.355109 43.642162 5.355109 C 46.032981 5.355109 48.236577 5.640086 50.249637 6.208382 C 52.269324 6.778334 53.695863 7.34663 54.525939 7.914926 L 55.785137 8.768198 L 52.196423 15.934028 C 51.992632 15.751776 51.679489 15.536387 51.255338 15.289518 C 50.839472 15.034365 50.004425 14.698026 48.750197 14.28216 C 47.49597 13.859666 46.226831 13.64759 44.942781 13.64759 C 42.908182 13.64759 41.085659 13.975644 39.473554 14.63341 C 37.86145 15.289518 36.585683 16.157702 35.644599 17.236304 C 34.703514 18.308279 33.984446 19.464753 33.489051 20.704069 C 33.000283 21.945041 32.756728 23.205896 32.756728 24.489946 C 32.756728 27.298289 33.807164 29.816685 35.906379 32.048447 C 38.015536 34.273582 41.027669 35.385322 44.942781 35.385322 Z M 88.936834 6.034414 L 88.936834 13.428887 L 76.213966 13.428887 L 76.213966 20.770342 L 88.401675 20.770342 L 88.401675 28.164816 L 76.213966 28.164816 L 76.213966 35.604024 L 88.936834 35.604024 L 88.936834 43.000155 L 67.790595 43.000155 L 67.790595 6.034414 Z M 88.936834 6.034414 " stroke="#7f0000" stroke-width="3.361485" stroke-opacity="1" stroke-miterlimit="4"/><g fill="#fd0000" fill-opacity="1"><g transform="translate(271.372607, 567.503541)"><g><path d="M 26.203125 -87.15625 L 26.203125 0 L 6.34375 0 L 6.34375 -87.15625 Z M 26.203125 -87.15625 "/></g></g></g><g fill="#fd0000" fill-opacity="1"><g transform="translate(324.613419, 567.503541)"><g><path d="M 52.71875 -17.953125 C 55.738281 -17.953125 58.675781 -18.410156 61.53125 -19.328125 C 64.382812 -20.242188 66.484375 -21.125 67.828125 -21.96875 L 69.828125 -23.34375 L 78.28125 -6.4375 C 78 -6.226562 77.609375 -5.945312 77.109375 -5.59375 C 76.617188 -5.25 75.472656 -4.597656 73.671875 -3.640625 C 71.878906 -2.691406 69.960938 -1.863281 67.921875 -1.15625 C 65.878906 -0.457031 63.203125 0.171875 59.890625 0.734375 C 56.585938 1.296875 53.175781 1.578125 49.65625 1.578125 C 41.550781 1.578125 33.867188 -0.410156 26.609375 -4.390625 C 19.359375 -8.367188 13.515625 -13.84375 9.078125 -20.8125 C 4.648438 -27.78125 2.4375 -35.316406 2.4375 -43.421875 C 2.4375 -49.546875 3.738281 -55.425781 6.34375 -61.0625 C 8.945312 -66.695312 12.410156 -71.519531 16.734375 -75.53125 C 21.066406 -79.539062 26.117188 -82.742188 31.890625 -85.140625 C 37.671875 -87.535156 43.59375 -88.734375 49.65625 -88.734375 C 55.289062 -88.734375 60.484375 -88.0625 65.234375 -86.71875 C 69.984375 -85.382812 73.347656 -84.050781 75.328125 -82.71875 L 78.28125 -80.703125 L 69.828125 -63.8125 C 69.335938 -64.226562 68.597656 -64.734375 67.609375 -65.328125 C 66.617188 -65.929688 64.644531 -66.722656 61.6875 -67.703125 C 58.726562 -68.691406 55.738281 -69.1875 52.71875 -69.1875 C 47.925781 -69.1875 43.628906 -68.410156 39.828125 -66.859375 C 36.023438 -65.316406 33.015625 -63.273438 30.796875 -60.734375 C 28.578125 -58.203125 26.882812 -55.472656 25.71875 -52.546875 C 24.5625 -49.628906 23.984375 -46.65625 23.984375 -43.625 C 23.984375 -37.007812 26.460938 -31.078125 31.421875 -25.828125 C 36.390625 -20.578125 43.488281 -17.953125 52.71875 -17.953125 Z M 52.71875 -17.953125 "/></g></g></g><g fill="#fd0000" fill-opacity="1"><g transform="translate(424.85319, 567.503541)"><g><path d="M 56.203125 -87.15625 L 56.203125 -69.71875 L 26.203125 -69.71875 L 26.203125 -52.390625 L 54.9375 -52.390625 L 54.9375 -34.96875 L 26.203125 -34.96875 L 26.203125 -17.4375 L 56.203125 -17.4375 L 56.203125 0 L 6.34375 0 L 6.34375 -87.15625 Z M 56.203125 -87.15625 "/></g></g></g><g clip-path="url(#991b365651)"><path fill="#000000" d="M 199.480469 523.765625 C 199.480469 502.933594 207.835938 483.023438 222.535156 468.433594 L 215.039062 460.941406 C 198.359375 477.511719 188.886719 500.117188 188.886719 523.765625 C 188.886719 547.417969 198.359375 570.023438 215.039062 586.597656 L 222.535156 579.101562 C 207.835938 564.511719 199.480469 544.601562 199.480469 523.765625 " fill-opacity="1" fill-rule="nonzero"/></g><path fill="#000000" d="M 209.839844 523.652344 C 209.441406 541.851562 216.40625 559.460938 229 572.636719 L 236.496094 565.148438 C 225.941406 554.007812 220.113281 539.183594 220.433594 523.871094 C 220.75 508.613281 227.0625 494.207031 237.871094 483.757812 L 230.378906 476.273438 C 217.648438 488.644531 210.207031 505.652344 209.839844 523.652344 " fill-opacity="1" fill-rule="nonzero"/><path fill="#000000" d="M 229.730469 523.765625 C 229.730469 536.515625 235.015625 548.671875 244.257812 557.390625 L 251.753906 549.894531 C 244.488281 543.164062 240.328125 533.699219 240.328125 523.765625 C 240.328125 513.835938 244.488281 504.371094 251.753906 497.640625 L 244.257812 490.144531 C 235.015625 498.863281 229.730469 511.019531 229.730469 523.765625 " fill-opacity="1" fill-rule="nonzero"/><path stroke-linecap="butt" transform="matrix(0.969831, 0, 0, 0.969831, 104.204969, 222.779423)" fill="none" stroke-linejoin="miter" d="M 73.492736 26.428053 C 82.494791 26.428053 91.299487 27.741104 99.906822 30.371235 C 108.546379 32.997338 114.950526 35.595247 119.123291 38.156906 L 125.185078 42.196755 L 109.811097 72.457357 C 108.594712 71.667915 106.90305 70.632779 104.736112 69.35195 C 102.601397 68.07112 98.573631 66.35932 92.660872 64.224604 C 86.748112 62.057666 81.230073 60.974197 76.102728 60.974197 C 69.795247 60.974197 64.917623 62.319471 61.465828 65.014046 C 58.050283 67.708621 56.34251 71.337638 56.34251 75.905124 C 56.34251 78.204978 57.148063 80.323583 58.755142 82.260938 C 60.366248 84.202321 63.125267 86.288704 67.036227 88.520086 C 70.947188 90.723273 74.378844 92.49549 77.335224 93.844792 C 80.291604 95.190065 84.85909 97.212004 91.033654 99.902551 C 101.811955 104.502259 110.99526 110.745296 118.58357 118.631661 C 126.204103 126.481775 130.014369 135.387165 130.014369 145.339774 C 130.014369 154.901689 128.290485 163.247219 124.842718 170.376364 C 121.423145 177.505509 116.710659 183.087992 110.697205 187.127841 C 104.720001 191.171717 98.098355 194.160319 90.836294 196.097674 C 83.57826 198.035029 75.708007 199.005721 67.233588 199.005721 C 59.971527 199.005721 52.842382 198.26864 45.846153 196.79045 C 38.849925 195.308232 32.985498 193.471571 28.252874 191.268383 C 23.556499 189.037001 19.315262 186.849925 15.537218 184.715209 C 11.795424 182.548271 9.032377 180.723693 7.26016 179.245503 L 4.64614 177.026205 L 23.620943 145.142413 C 25.232049 146.491714 27.44732 148.215598 30.274812 150.318092 C 33.098275 152.388363 38.108816 155.179605 45.302405 158.695844 C 52.532244 162.175833 58.904169 163.919856 64.426235 163.919856 C 80.42452 163.919856 88.423662 158.466261 88.423662 147.559072 C 88.423662 145.259218 87.847692 143.140614 86.699779 141.199231 C 85.547838 139.261875 83.529927 137.32452 80.637992 135.387165 C 77.746056 133.41356 75.184397 131.854815 72.948987 130.702874 C 70.749827 129.554961 67.116783 127.814966 62.057909 125.478862 C 57.031258 123.114564 53.301547 121.326236 50.872805 120.10985 C 40.78728 115.115421 32.985498 108.888496 27.463431 101.433102 C 21.945393 93.97368 19.186373 85.942316 19.186373 77.334981 C 19.186373 62.387943 24.704412 50.163675 35.744517 40.670232 C 46.780595 31.176788 59.363334 26.428053 73.492736 26.428053 Z M 219.229374 29.485127 L 219.229374 196.001008 L 181.287823 196.001008 L 181.287823 29.485127 Z M 286.718613 183.680073 C 275.219343 173.461632 269.471721 160.355283 269.471721 144.352971 C 269.471721 128.322464 275.448925 115.163754 287.411389 104.880869 C 299.402047 94.565762 314.216168 89.406194 331.861809 89.406194 C 349.205367 89.406194 363.826156 94.597984 375.720147 104.981563 C 387.646361 115.328893 393.607454 128.455381 393.607454 144.352971 C 393.607454 160.222367 387.79136 173.296494 376.163201 183.583407 C 364.531015 193.866292 349.765226 199.005721 331.861809 199.005721 C 313.297838 199.005721 298.250106 193.898514 286.718613 183.680073 Z M 314.365195 126.763719 C 309.733265 131.327177 307.4173 137.191604 307.4173 144.352971 C 307.4173 151.482116 309.636599 157.298209 314.071169 161.801251 C 318.53796 166.300265 324.402387 168.551786 331.664448 168.551786 C 338.660677 168.551786 344.408298 166.268043 348.91134 161.700557 C 353.410354 157.100849 355.661875 151.304894 355.661875 144.304638 C 355.661875 137.175493 353.34591 131.327177 348.71398 126.763719 C 344.082049 122.196233 338.398872 119.91249 331.664448 119.91249 C 324.797108 119.91249 319.029348 122.196233 314.365195 126.763719 Z M 443.890078 29.485127 L 504.652948 29.485127 C 521.601786 29.485127 535.320355 33.851225 545.800601 42.591476 C 556.313069 51.331727 561.569303 64.043355 561.569303 80.734415 C 561.569303 97.425475 556.248624 110.515713 545.60324 120.009156 C 534.990078 129.506627 521.339981 134.251335 504.652948 134.251335 L 481.835657 134.251335 L 481.835657 196.001008 L 443.890078 196.001008 Z M 481.835657 103.946428 L 492.529374 103.946428 C 501.003793 103.946428 507.967799 102.238655 513.421394 98.819082 C 518.874988 95.371315 521.601786 89.752582 521.601786 81.966911 C 521.601786 74.016102 518.874988 68.332925 513.421394 64.91738 C 507.967799 61.465585 501.003793 59.741701 492.529374 59.741701 L 481.835657 59.741701 Z M 481.835657 103.946428 " stroke="#fd0000" stroke-width="15.13935" stroke-opacity="1" stroke-miterlimit="4"/><g fill="#000000" fill-opacity="1"><g transform="translate(104.220123, 412.86621)"><g><path d="M 71.265625 -164.4375 C 80.003906 -164.4375 88.550781 -163.164062 96.90625 -160.625 C 105.257812 -158.082031 111.457031 -155.570312 115.5 -153.09375 L 121.375 -149.171875 L 106.5 -119.8125 C 105.320312 -120.59375 103.6875 -121.601562 101.59375 -122.84375 C 99.507812 -124.082031 95.597656 -125.742188 89.859375 -127.828125 C 84.117188 -129.921875 78.765625 -130.96875 73.796875 -130.96875 C 67.671875 -130.96875 62.941406 -129.660156 59.609375 -127.046875 C 56.285156 -124.441406 54.625 -120.921875 54.625 -116.484375 C 54.625 -114.265625 55.40625 -112.207031 56.96875 -110.3125 C 58.53125 -108.414062 61.203125 -106.390625 64.984375 -104.234375 C 68.773438 -102.085938 72.101562 -100.359375 74.96875 -99.046875 C 77.84375 -97.742188 82.285156 -95.789062 88.296875 -93.1875 C 98.734375 -88.75 107.640625 -82.710938 115.015625 -75.078125 C 122.390625 -67.441406 126.078125 -58.796875 126.078125 -49.140625 C 126.078125 -39.867188 124.410156 -31.773438 121.078125 -24.859375 C 117.753906 -17.941406 113.1875 -12.523438 107.375 -8.609375 C 101.570312 -4.691406 95.144531 -1.789062 88.09375 0.09375 C 81.039062 1.988281 73.40625 2.9375 65.1875 2.9375 C 58.144531 2.9375 51.226562 2.21875 44.4375 0.78125 C 37.65625 -0.65625 31.976562 -2.445312 27.40625 -4.59375 C 22.84375 -6.75 18.734375 -8.867188 15.078125 -10.953125 C 11.421875 -13.046875 8.742188 -14.8125 7.046875 -16.25 L 4.5 -18.40625 L 22.90625 -49.328125 C 24.46875 -48.023438 26.617188 -46.363281 29.359375 -44.34375 C 32.097656 -42.320312 36.957031 -39.613281 43.9375 -36.21875 C 50.925781 -32.820312 57.097656 -31.125 62.453125 -31.125 C 77.984375 -31.125 85.75 -36.410156 85.75 -46.984375 C 85.75 -49.203125 85.191406 -51.253906 84.078125 -53.140625 C 82.972656 -55.035156 81.015625 -56.929688 78.203125 -58.828125 C 75.398438 -60.722656 72.921875 -62.222656 70.765625 -63.328125 C 68.617188 -64.441406 65.097656 -66.140625 60.203125 -68.421875 C 55.304688 -70.703125 51.679688 -72.429688 49.328125 -73.609375 C 39.546875 -78.429688 31.976562 -84.460938 26.625 -91.703125 C 21.269531 -98.953125 18.59375 -106.753906 18.59375 -115.109375 C 18.59375 -129.597656 23.941406 -141.441406 34.640625 -150.640625 C 45.347656 -159.835938 57.554688 -164.4375 71.265625 -164.4375 Z M 71.265625 -164.4375 "/></g></g></g><g fill="#000000" fill-opacity="1"><g transform="translate(268.264457, 412.86621)"><g><path d="M 48.546875 -161.5 L 48.546875 0 L 11.75 0 L 11.75 -161.5 Z M 48.546875 -161.5 "/></g></g></g><g fill="#000000" fill-opacity="1"><g transform="translate(361.05427, 412.86621)"><g><path d="M 21.234375 -11.9375 C 10.078125 -21.851562 4.5 -34.578125 4.5 -50.109375 C 4.5 -65.640625 10.304688 -78.394531 21.921875 -88.375 C 33.535156 -98.363281 47.894531 -103.359375 65 -103.359375 C 81.832031 -103.359375 96.023438 -98.332031 107.578125 -88.28125 C 119.128906 -78.238281 124.90625 -65.515625 124.90625 -50.109375 C 124.90625 -34.710938 119.257812 -22.019531 107.96875 -12.03125 C 96.675781 -2.050781 82.351562 2.9375 65 2.9375 C 46.988281 2.9375 32.398438 -2.019531 21.234375 -11.9375 Z M 48.0625 -67.140625 C 43.5625 -62.703125 41.3125 -57.023438 41.3125 -50.109375 C 41.3125 -43.191406 43.460938 -37.546875 47.765625 -33.171875 C 52.078125 -28.804688 57.753906 -26.625 64.796875 -26.625 C 71.585938 -26.625 77.164062 -28.84375 81.53125 -33.28125 C 85.90625 -37.71875 88.09375 -43.328125 88.09375 -50.109375 C 88.09375 -57.023438 85.84375 -62.703125 81.34375 -67.140625 C 76.84375 -71.578125 71.328125 -73.796875 64.796875 -73.796875 C 58.140625 -73.796875 52.5625 -71.578125 48.0625 -67.140625 Z M 48.0625 -67.140625 "/></g></g></g><g fill="#000000" fill-opacity="1"><g transform="translate(522.945293, 412.86621)"><g><path d="M 11.75 -161.5 L 70.671875 -161.5 C 87.117188 -161.5 100.429688 -157.257812 110.609375 -148.78125 C 120.785156 -140.300781 125.875 -127.96875 125.875 -111.78125 C 125.875 -95.59375 120.71875 -82.898438 110.40625 -73.703125 C 100.101562 -64.503906 86.859375 -59.90625 70.671875 -59.90625 L 48.546875 -59.90625 L 48.546875 0 L 11.75 0 Z M 48.546875 -89.265625 L 58.921875 -89.265625 C 67.148438 -89.265625 73.90625 -90.925781 79.1875 -94.25 C 84.46875 -97.582031 87.109375 -103.035156 87.109375 -110.609375 C 87.109375 -118.304688 84.46875 -123.816406 79.1875 -127.140625 C 73.90625 -130.472656 67.148438 -132.140625 58.921875 -132.140625 L 48.546875 -132.140625 Z M 48.546875 -89.265625 "/></g></g></g><g clip-path="url(#97b9ceb062)"><path fill="#ff0000" d="M 383.773438 25.054688 C 185.578125 25.054688 24.976562 185.65625 24.976562 383.851562 C 24.976562 582.050781 185.578125 742.648438 383.773438 742.648438 C 581.972656 742.648438 742.726562 582.050781 742.726562 383.851562 C 742.726562 185.65625 581.972656 25.054688 383.773438 25.054688 Z M 383.773438 719.132812 C 198.574219 719.132812 48.496094 569.054688 48.496094 383.851562 C 48.496094 198.652344 198.574219 48.574219 383.773438 48.574219 C 568.976562 48.574219 719.054688 198.652344 719.054688 383.851562 C 719.054688 569.054688 568.976562 719.132812 383.773438 719.132812 Z M 383.773438 719.132812 " fill-opacity="1" fill-rule="nonzero"/></g><g clip-path="url(#7a72ae6fbc)"><path fill="#000000" d="M 383.925781 47.503906 C 198.050781 47.503906 47.429688 198.121094 47.429688 384 C 47.429688 569.878906 198.050781 720.496094 383.925781 720.496094 C 569.804688 720.496094 720.566406 569.878906 720.566406 384 C 720.566406 198.121094 569.804688 47.503906 383.925781 47.503906 Z M 383.925781 698.441406 C 210.238281 698.441406 69.488281 557.6875 69.488281 384 C 69.488281 210.308594 210.238281 69.558594 383.925781 69.558594 C 557.617188 69.558594 698.367188 210.308594 698.367188 384 C 698.367188 557.6875 557.617188 698.441406 383.925781 698.441406 Z M 383.925781 698.441406 " fill-opacity="1" fill-rule="nonzero"/></g><g clip-path="url(#abc42f2269)"><path fill="#000000" d="M 383.929688 56.207031 C 202.859375 56.207031 56.136719 202.929688 56.136719 384 C 56.136719 565.066406 202.859375 711.789062 383.929688 711.789062 C 564.996094 711.789062 711.859375 565.066406 711.859375 384 C 711.859375 202.929688 564.996094 56.207031 383.929688 56.207031 Z M 383.929688 690.304688 C 214.730469 690.304688 77.621094 553.195312 77.621094 384 C 77.621094 214.804688 214.730469 77.695312 383.929688 77.695312 C 553.125 77.695312 690.234375 214.804688 690.234375 384 C 690.234375 553.195312 553.125 690.304688 383.929688 690.304688 Z M 383.929688 690.304688 " fill-opacity="1" fill-rule="nonzero"/></g><g clip-path="url(#63ac571a13)"><path fill="#000000" d="M 558.054688 523.898438 C 558.054688 544.730469 549.699219 564.640625 535 579.234375 L 542.5 586.726562 C 559.179688 570.152344 568.652344 547.546875 568.652344 523.898438 C 568.652344 500.25 559.179688 477.640625 542.5 461.070312 L 535 468.5625 C 549.699219 483.15625 558.054688 503.066406 558.054688 523.898438 " fill-opacity="1" fill-rule="nonzero"/></g><path fill="#000000" d="M 547.695312 524.011719 C 548.09375 505.816406 541.128906 488.207031 528.535156 475.027344 L 521.039062 482.515625 C 531.597656 493.660156 537.425781 508.480469 537.101562 523.792969 C 536.789062 539.050781 530.476562 553.460938 519.667969 563.90625 L 527.15625 571.394531 C 539.890625 559.019531 547.328125 542.011719 547.695312 524.011719 " fill-opacity="1" fill-rule="nonzero"/><path fill="#000000" d="M 527.804688 523.898438 C 527.804688 511.152344 522.523438 498.992188 513.277344 490.277344 L 505.78125 497.769531 C 513.046875 504.503906 517.207031 513.96875 517.207031 523.898438 C 517.207031 533.828125 513.046875 543.292969 505.78125 550.027344 L 513.277344 557.519531 C 522.523438 548.800781 527.804688 536.644531 527.804688 523.898438 " fill-opacity="1" fill-rule="nonzero"/></svg>